<?xml version="1.0" standalone="no"?>
<!DOCTYPE svg PUBLIC "-//W3C//DTD SVG 20010904//EN"
 "http://www.w3.org/TR/2001/REC-SVG-20010904/DTD/svg10.dtd">
<svg version="1.0" xmlns="http://www.w3.org/2000/svg"
 width="256.000000pt" height="256.000000pt" viewBox="0 0 256.000000 256.000000"
 preserveAspectRatio="xMidYMid meet">
<metadata>
Created by potrace 1.11, written by Peter Selinger 2001-2013
</metadata>
<g transform="translate(0.000000,256.000000) scale(0.100000,-0.100000)"
fill="#000000" stroke="none">
<path d="M684 2169 c-183 -30 -333 -137 -417 -297 -48 -91 -67 -174 -67 -298
0 -299 133 -497 590 -877 113 -94 256 -222 319 -285 63 -62 126 -118 140 -123
47 -18 76 -1 197 120 66 65 211 194 324 288 457 380 590 578 590 877 0 124
-19 207 -67 298 -93 178 -264 286 -480 304 -150 12 -291 -40 -446 -166 l-88
-71 -46 38 c-207 174 -352 225 -549 192z"/>
</g>
</svg>
